{
    "asset" : {
        "copyright" : "mgsx",
        "generator" : "Khronos glTF Blender I/O v3.2.43",
        "version" : "2.0"
    },
    "extensionsUsed" : [
        "KHR_materials_transmission"
    ],
    "scene" : 0,
    "scenes" : [
        {
            "name" : "Scene",
            "nodes" : [
                0,
                1,
                2,
                3,
                4,
                5,
                6
            ]
        }
    ],
    "nodes" : [
        {
            "mesh" : 0,
            "name" : "Icosphere"
        },
        {
            "mesh" : 1,
            "name" : "Icosphere.001",
            "translation" : [
                2,
                0,
                0
            ]
        },
        {
            "mesh" : 2,
            "name" : "Icosphere.002",
            "translation" : [
                4,
                0,
                0
            ]
        },
        {
            "mesh" : 3,
            "name" : "Icosphere.003",
            "translation" : [
                6,
                0,
                0
            ]
        },
        {
            "mesh" : 4,
            "name" : "Icosphere.004",
            "translation" : [
                8,
                0,
                0
            ]
        },
        {
            "mesh" : 5,
            "name" : "Icosphere.005",
            "translation" : [
                10,
                0,
                0
            ]
        },
        {
            "mesh" : 6,
            "name" : "Icosphere.006",
            "translation" : [
                12,
                0,
                0
            ]
        }
    ],
    "materials" : [
        {
            "doubleSided" : true,
            "name" : "M0-orange metal",
            "pbrMetallicRoughness" : {
                "baseColorFactor" : [
                    0.8000000715255737,
                    0.25544196367263794,
                    0,
                    1
                ],
                "roughnessFactor" : 0.5727272629737854
            }
        },
        {
            "doubleSided" : true,
            "name" : "M1-light metal",
            "pbrMetallicRoughness" : {
                "baseColorFactor" : [
                    0.800000011920929,
                    0.800000011920929,
                    0.800000011920929,
                    1
                ],
                "roughnessFactor" : 0.09454546868801117
            }
        },
        {
            "doubleSided" : true,
            "name" : "M2-grey metal",
            "pbrMetallicRoughness" : {
                "baseColorFactor" : [
                    0.4788472652435303,
                    0.4788472652435303,
                    0.4788472652435303,
                    1
                ],
                "roughnessFactor" : 0.4318181872367859
            }
        },
        {
            "doubleSided" : true,
            "name" : "M3-black metal",
            "pbrMetallicRoughness" : {
                "baseColorFactor" : [
                    0.07601331174373627,
                    0.07601331174373627,
                    0.07601331174373627,
                    1
                ],
                "roughnessFactor" : 0.36818182468414307
            }
        },
        {
            "doubleSided" : true,
            "name" : "M4-grass",
            "pbrMetallicRoughness" : {
                "baseColorFactor" : [
                    0.10911532491445541,
                    0.26039230823516846,
                    0.030430207028985023,
                    1
                ],
                "metallicFactor" : 0,
                "roughnessFactor" : 0.6727272868156433
            }
        },
        {
            "doubleSided" : true,
            "emissiveFactor" : [
                1,
                1,
                0
            ],
            "name" : "M5-emissive",
            "pbrMetallicRoughness" : {
                "baseColorFactor" : [
                    0,
                    0,
                    0,
                    1
                ],
                "metallicFactor" : 0,
                "roughnessFactor" : 0.5
            }
        },
        {
            "doubleSided" : true,
            "extensions" : {
                "KHR_materials_transmission" : {
                    "transmissionFactor" : 0.9045454263687134
                }
            },
            "name" : "M6-glass",
            "pbrMetallicRoughness" : {
                "baseColorFactor" : [
                    0.1430673599243164,
                    0.905271053314209,
                    1,
                    1
                ],
                "metallicFactor" : 0,
                "roughnessFactor" : 0.11363637447357178
            }
        }
    ],
    "meshes" : [
        {
            "name" : "Icosphere",
            "primitives" : [
                {
                    "attributes" : {
                        "POSITION" : 0,
                        "NORMAL" : 1,
                        "TEXCOORD_0" : 2
                    },
                    "indices" : 3,
                    "material" : 0
                }
            ]
        },
        {
            "name" : "Icosphere.001",
            "primitives" : [
                {
                    "attributes" : {
                        "POSITION" : 4,
                        "NORMAL" : 5,
                        "TEXCOORD_0" : 6
                    },
                    "indices" : 3,
                    "material" : 1
                }
            ]
        },
        {
            "name" : "Icosphere.002",
            "primitives" : [
                {
                    "attributes" : {
                        "POSITION" : 7,
                        "NORMAL" : 8,
                        "TEXCOORD_0" : 9
                    },
                    "indices" : 3,
                    "material" : 2
                }
            ]
        },
        {
            "name" : "Icosphere.003",
            "primitives" : [
                {
                    "attributes" : {
                        "POSITION" : 10,
                        "NORMAL" : 11,
                        "TEXCOORD_0" : 12
                    },
                    "indices" : 3,
                    "material" : 3
                }
            ]
        },
        {
            "name" : "Icosphere.004",
            "primitives" : [
                {
                    "attributes" : {
                        "POSITION" : 13,
                        "NORMAL" : 14,
                        "TEXCOORD_0" : 15
                    },
                    "indices" : 3,
                    "material" : 4
                }
            ]
        },
        {
            "name" : "Icosphere.005",
            "primitives" : [
                {
                    "attributes" : {
                        "POSITION" : 16,
                        "NORMAL" : 17,
                        "TEXCOORD_0" : 18
                    },
                    "indices" : 3,
                    "material" : 5
                }
            ]
        },
        {
            "name" : "Icosphere.006",
            "primitives" : [
                {
                    "attributes" : {
                        "POSITION" : 19,
                        "NORMAL" : 20,
                        "TEXCOORD_0" : 21
                    },
                    "indices" : 3,
                    "material" : 6
                }
            ]
        }
    ],
    "accessors" : [
        {
            "bufferView" : 0,
            "componentType" : 5126,
            "count" : 63,
            "max" : [
                0.9510578513145447,
                1,
                0.9999999403953552
            ],
            "min" : [
                -0.9510578513145447,
                -1,
                -0.9999999403953552
            ],
            "type" : "VEC3"
        },
        {
            "bufferView" : 1,
            "componentType" : 5126,
            "count" : 63,
            "type" : "VEC3"
        },
        {
            "bufferView" : 2,
            "componentType" : 5126,
            "count" : 63,
            "type" : "VEC2"
        },
        {
            "bufferView" : 3,
            "componentType" : 5123,
            "count" : 240,
            "type" : "SCALAR"
        },
        {
            "bufferView" : 4,
            "componentType" : 5126,
            "count" : 63,
            "max" : [
                0.9510578513145447,
                1,
                0.9999999403953552
            ],
            "min" : [
                -0.9510578513145447,
                -1,
                -0.9999999403953552
            ],
            "type" : "VEC3"
        },
        {
            "bufferView" : 5,
            "componentType" : 5126,
            "count" : 63,
            "type" : "VEC3"
        },
        {
            "bufferView" : 6,
            "componentType" : 5126,
            "count" : 63,
            "type" : "VEC2"
        },
        {
            "bufferView" : 7,
            "componentType" : 5126,
            "count" : 63,
            "max" : [
                0.9510578513145447,
                1,
                0.9999999403953552
            ],
            "min" : [
                -0.9510578513145447,
                -1,
                -0.9999999403953552
            ],
            "type" : "VEC3"
        },
        {
            "bufferView" : 8,
            "componentType" : 5126,
            "count" : 63,
            "type" : "VEC3"
        },
        {
            "bufferView" : 9,
            "componentType" : 5126,
            "count" : 63,
            "type" : "VEC2"
        },
        {
            "bufferView" : 10,
            "componentType" : 5126,
            "count" : 63,
            "max" : [
                0.9510578513145447,
                1,
                0.9999999403953552
            ],
            "min" : [
                -0.9510578513145447,
                -1,
                -0.9999999403953552
            ],
            "type" : "VEC3"
        },
        {
            "bufferView" : 11,
            "componentType" : 5126,
            "count" : 63,
            "type" : "VEC3"
        },
        {
            "bufferView" : 12,
            "componentType" : 5126,
            "count" : 63,
            "type" : "VEC2"
        },
        {
            "bufferView" : 13,
            "componentType" : 5126,
            "count" : 63,
            "max" : [
                0.9510578513145447,
                1,
                0.9999999403953552
            ],
            "min" : [
                -0.9510578513145447,
                -1,
                -0.9999999403953552
            ],
            "type" : "VEC3"
        },
        {
            "bufferView" : 14,
            "componentType" : 5126,
            "count" : 63,
            "type" : "VEC3"
        },
        {
            "bufferView" : 15,
            "componentType" : 5126,
            "count" : 63,
            "type" : "VEC2"
        },
        {
            "bufferView" : 16,
            "componentType" : 5126,
            "count" : 63,
            "max" : [
                0.9510578513145447,
                1,
                0.9999999403953552
            ],
            "min" : [
                -0.9510578513145447,
                -1,
                -0.9999999403953552
            ],
            "type" : "VEC3"
        },
        {
            "bufferView" : 17,
            "componentType" : 5126,
            "count" : 63,
            "type" : "VEC3"
        },
        {
            "bufferView" : 18,
            "componentType" : 5126,
            "count" : 63,
            "type" : "VEC2"
        },
        {
            "bufferView" : 19,
            "componentType" : 5126,
            "count" : 63,
            "max" : [
                0.9510578513145447,
                1,
                0.9999999403953552
            ],
            "min" : [
                -0.9510578513145447,
                -1,
                -0.9999999403953552
            ],
            "type" : "VEC3"
        },
        {
            "bufferView" : 20,
            "componentType" : 5126,
            "count" : 63,
            "type" : "VEC3"
        },
        {
            "bufferView" : 21,
            "componentType" : 5126,
            "count" : 63,
            "type" : "VEC2"
        }
    ],
    "bufferViews" : [
        {
            "buffer" : 0,
            "byteLength" : 756,
            "byteOffset" : 0
        },
        {
            "buffer" : 0,
            "byteLength" : 756,
            "byteOffset" : 756
        },
        {
            "buffer" : 0,
            "byteLength" : 504,
            "byteOffset" : 1512
        },
        {
            "buffer" : 0,
            "byteLength" : 480,
            "byteOffset" : 2016
        },
        {
            "buffer" : 0,
            "byteLength" : 756,
            "byteOffset" : 2496
        },
        {
            "buffer" : 0,
            "byteLength" : 756,
            "byteOffset" : 3252
        },
        {
            "buffer" : 0,
            "byteLength" : 504,
            "byteOffset" : 4008
        },
        {
            "buffer" : 0,
            "byteLength" : 756,
            "byteOffset" : 4512
        },
        {
            "buffer" : 0,
            "byteLength" : 756,
            "byteOffset" : 5268
        },
        {
            "buffer" : 0,
            "byteLength" : 504,
            "byteOffset" : 6024
        },
        {
            "buffer" : 0,
            "byteLength" : 756,
            "byteOffset" : 6528
        },
        {
            "buffer" : 0,
            "byteLength" : 756,
            "byteOffset" : 7284
        },
        {
            "buffer" : 0,
            "byteLength" : 504,
            "byteOffset" : 8040
        },
        {
            "buffer" : 0,
            "byteLength" : 756,
            "byteOffset" : 8544
        },
        {
            "buffer" : 0,
            "byteLength" : 756,
            "byteOffset" : 9300
        },
        {
            "buffer" : 0,
            "byteLength" : 504,
            "byteOffset" : 10056
        },
        {
            "buffer" : 0,
            "byteLength" : 756,
            "byteOffset" : 10560
        },
        {
            "buffer" : 0,
            "byteLength" : 756,
            "byteOffset" : 11316
        },
        {
            "buffer" : 0,
            "byteLength" : 504,
            "byteOffset" : 12072
        },
        {
            "buffer" : 0,
            "byteLength" : 756,
            "byteOffset" : 12576
        },
        {
            "buffer" : 0,
            "byteLength" : 756,
            "byteOffset" : 13332
        },
        {
            "buffer" : 0,
            "byteLength" : 504,
            "byteOffset" : 14088
        }
    ],
    "buffers" : [
        {
            "byteLength" : 14592,
            "uri" : "materials.bin"
        }
    ]
}
